<svg width="41" height="40" viewBox="0 0 41 40" fill="none" xmlns="http://www.w3.org/2000/svg">
<path d="M6.21429 0C3.0625 0 0.5 2.5625 0.5 5.71429V34.2857C0.5 37.4375 3.0625 40 6.21429 40H34.7857C37.9375 40 40.5 37.4375 40.5 34.2857V5.71429C40.5 2.5625 37.9375 0 34.7857 0H6.21429ZM32.7411 7.5L23.4732 18.0893L34.375 32.5H25.8393L19.1607 23.7589L11.5089 32.5H7.26786L17.1786 21.1696L6.72321 7.5H15.4732L21.5179 15.4911L28.5 7.5H32.7411ZM29.3661 29.9643L14.1964 9.90179H11.6696L27.0089 29.9643H29.3571H29.3661Z" fill="white"/>
</svg>
